<?xml version="1.0" encoding="UTF-8" standalone="no" ?>
<svg xmlns:dc="http://purl.org/dc/elements/1.1/" xmlns:cc="http://creativecommons.org/ns#" xmlns:rdf="http://www.w3.org/1999/02/22-rdf-syntax-ns#" xmlns:svg="http://www.w3.org/2000/svg" xmlns="http://www.w3.org/2000/svg" xmlns:sodipodi="http://sodipodi.sourceforge.net/DTD/sodipodi-0.dtd" xmlns:inkscape="http://www.inkscape.org/namespaces/inkscape" width="1000px" height="1000px" viewBox="0 0 1000 1000" version="1.1" id="svg31" sodipodi:docname="ed_icon.svg" inkscape:version="1.0.2 (e86c870879, 2021-01-15)" inkscape:export-filename="ed_icon.png" inkscape:export-xdpi="24.576" inkscape:export-ydpi="24.576">
  <metadata id="metadata37">
    <rdf:RDF>
      <cc:Work rdf:about="">
        <dc:format>image/svg+xml</dc:format>
        <dc:type rdf:resource="http://purl.org/dc/dcmitype/StillImage" />
        <dc:title />
      </cc:Work>
    </rdf:RDF>
  </metadata>
  <defs id="defs35" />
  <sodipodi:namedview pagecolor="#ffffff" bordercolor="#666666" borderopacity="1" objecttolerance="10" gridtolerance="10" guidetolerance="10" inkscape:pageopacity="0" inkscape:pageshadow="2" inkscape:window-width="640" inkscape:window-height="480" id="namedview33" showgrid="false" inkscape:current-layer="svg31" inkscape:document-rotation="0" />
  <g id="surface1" transform="matrix(3.19214,0,0,3.19214,-3.19253,110.403)" style="fill:#2b66c4;fill-opacity:1">
    <path style="fill:#2b66c4;fill-opacity:1;fill-rule:evenodd;stroke:none" d="m 157.637,127.121 c 0.117,-3.629 3.312,-11.941 3.742,-18.262 1.484,-0.933 2.965,-1.871 4.449,-2.808 -0.672,-9.1799 -1.746,-18.1682 -3.043,-27.0354 -1.484,6.5157 -1.094,14.4336 -1.64,21.6524 -1.168,-0.664 -2.34,-1.3282 -3.508,-1.9922 -1.172,0.664 -2.344,1.3282 -3.512,1.9922 -0.547,-7.2188 -0.156,-15.1367 -1.641,-21.6524 -1.297,8.8672 -2.367,17.8555 -3.043,27.0354 1.485,0.937 2.965,1.875 4.45,2.808 0.429,6.321 3.629,14.633 3.746,18.262" id="path2" />
    <path style="fill:#2b66c4;fill-opacity:1;fill-rule:evenodd;stroke:none" d="m 157.68,127.258 8.211,-5.871 h 14.332 l -3.782,-3.086 -9.953,-1.145 v -2.289 c 0,-2.207 4.34,0.05 6.621,-0.898 -1.941,-1.145 -3.574,-3.535 -5.824,-3.434 -1.875,0.09 -3.34,2.16 -4.078,3.883 z m 0,0" id="path4" />
    <path style="fill:#2b66c4;fill-opacity:1;fill-rule:evenodd;stroke:none" d="m 157.59,127.258 -8.211,-5.871 h -14.332 l 3.781,-3.086 9.953,-1.145 v -2.289 c 0,-2.207 -4.34,0.05 -6.617,-0.898 1.938,-1.145 3.57,-3.535 5.82,-3.434 1.875,0.09 3.34,2.16 4.082,3.883 z m 0,0" id="path6" />
    <path style="fill:#2b66c4;fill-opacity:1;fill-rule:evenodd;stroke:none" d="m 157.637,158.738 5.687,-25.976 6.344,-6.418 -12.031,4.105 -12.035,-4.105 6.347,6.418 z m 0,0" id="path8" />
    <path style="fill:#2b66c4;fill-opacity:1;fill-rule:evenodd;stroke:none" d="m 158.605,169.898 8.114,-34.714 6.574,-8.114 c 7.086,-0.48 13.406,0.586 19.414,-2.773 2.707,-1.516 4.004,-6.418 2.977,-9.348 -1.543,-4.394 -4.555,-7.668 -8.934,-11.09 l 0.203,-8.4215 58.645,-46.6289 c -0.305,10.7812 -1.856,23.582 -10.168,30.1953 l -19.618,15.6094 c -3.675,2.9258 -5.699,10.3637 -2.566,13.8667 l 7.805,8.731 c 1.371,1.531 1.34,4.93 -0.305,6.16 z m 0,0" id="path10" />
    <path style="fill:#2b66c4;fill-opacity:1;fill-rule:evenodd;stroke:none" d="m 156.664,169.898 -8.113,-34.714 -6.574,-8.114 c -7.086,-0.48 -13.403,0.586 -19.411,-2.773 -2.711,-1.516 -4.007,-6.418 -2.98,-9.348 1.543,-4.394 4.555,-7.668 8.937,-11.09 L 128.316,95.4375 69.6719,48.8086 c 0.3086,10.7812 1.8554,23.582 10.1679,30.1953 L 99.457,94.6133 c 3.676,2.9258 5.699,10.3637 2.566,13.8667 l -7.8042,8.731 c -1.3711,1.531 -1.3399,4.93 0.3085,6.16 z m 0,0" id="path12" />
    <path style="fill:#2b66c4;fill-opacity:1;fill-rule:evenodd;stroke:none" d="m 235.906,82.6133 0.137,11.1172 c 0.02,1.914 -0.742,4.0976 -2.238,5.289 l -14.711,11.7265 -3.66,-4.812 c -1.625,-2.141 -1.094,-6.3363 1.015,-8.0004 z m 0,0" id="path14" />
    <path style="fill:#2b66c4;fill-opacity:1;fill-rule:evenodd;stroke:none" d="m 79.3633,82.6133 -0.1367,11.1172 c -0.023,1.914 0.7422,4.0976 2.2382,5.289 l 14.711,11.7265 3.6601,-4.812 c 1.6291,-2.141 1.0941,-6.3363 -1.0156,-8.0004 z m 0,0" id="path16" />
    <path style="fill:#2b66c4;fill-opacity:1;fill-rule:evenodd;stroke:none" d="M 248.539,51.8477 314.258,1 c 0.289,12.6641 -4.824,26.3867 -14.391,34.25 l -23.695,19.4766 -0.1,3.9336 14.871,-11.6094 c 0.06,10.6172 -3.562,21.9414 -11.32,28.6875 L 256.887,95.5 v 3.6484 l 12.472,-9.9804 c 1.25,10.3828 -3.726,20.168 -11.129,26 l -53.437,42.117 c -2.934,2.313 -5.383,6.152 -5.277,9.883 l 0.191,6.906 c 0.06,2.188 -1.273,4.477 -2.973,5.856 l -23.601,19.09 -12.762,-25.809 63.512,-48.352 1.344,-7.484 -3.934,-4.605 13.144,-9.977 4.415,-7.9649 0.191,-15.2539 c 5.457,-4.5469 9.414,-12.1719 9.496,-27.7265" id="path18" />
    <path style="fill:#2b66c4;fill-opacity:1;fill-rule:evenodd;stroke:none" d="M 66.7305,51.8477 1.01172,1 C 0.722656,13.6641 5.83594,27.3867 15.4023,35.25 l 23.6954,19.4766 0.098,3.9336 -14.8711,-11.6094 c -0.062,10.6172 3.5625,21.9414 11.3203,28.6875 L 58.3828,95.5 v 3.6484 L 45.9102,89.168 c -1.25,10.3828 3.7265,20.168 11.1289,26 l 53.4409,42.117 c 2.93,2.313 5.379,6.152 5.274,9.883 l -0.191,6.906 c -0.06,2.188 1.273,4.477 2.976,5.856 l 23.602,19.09 12.757,-25.809 L 91.3867,124.859 90.043,117.375 93.9766,112.77 80.832,102.793 76.4219,94.8281 76.2266,79.5742 C 70.7695,75.0273 66.8125,67.4023 66.7305,51.8477" id="path20" />
    <path style="fill:#2b66c4;fill-opacity:1;fill-rule:evenodd;stroke:none" d="m 236.012,136.723 -30.246,23.586 c -1.829,1.425 -3.329,3.789 -3.329,6.105 v 9.156 l 29.504,-23.769 c 2.032,-1.637 3.704,-4.239 3.793,-6.844 z m 0,0" id="path22" />
    <path style="fill:#2b66c4;fill-opacity:1;fill-rule:evenodd;stroke:none" d="m 79.2578,136.723 30.2462,23.586 c 1.828,1.425 3.328,3.789 3.328,6.105 v 9.156 L 83.3281,151.801 c -2.0312,-1.637 -3.7031,-4.239 -3.7929,-6.844 z m 0,0" id="path24" />
    <path style="fill:#2b66c4;fill-opacity:1;fill-rule:evenodd;stroke:none" d="m 157.637,189.121 -3.739,4.656 -3.406,17.118 -7.812,-5.985 14.957,-28.836 14.953,28.836 -7.809,5.985 -3.41,-17.118 z m 0,0" id="path26" />
    <path style="fill:#2b66c4;fill-opacity:1;fill-rule:evenodd;stroke:none" d="m 152.738,239.98 c -0.652,-1.492 -0.406,-4.859 0.164,-6.019 0.567,-1.16 1.164,-1.637 1.989,-2.211 -2.864,-2.305 -5.575,-4.727 -4.231,-11.188 l 5.235,-25.125 1.742,-2.824 1.742,2.824 5.23,25.125 c 1.344,6.461 -1.367,8.883 -4.23,11.188 0.824,0.574 1.422,1.051 1.992,2.211 0.566,1.16 0.816,4.527 0.16,6.019 -1.82,4.157 -7.972,4.157 -9.793,0" id="path28" />
  </g>
</svg>